<?xml version="1.0" encoding="utf-8"?>
<!-- Generator: Adobe Illustrator 24.0.1, SVG Export Plug-In . SVG Version: 6.00 Build 0)  -->
<svg version="1.1" id="Layer_1" xmlns="http://www.w3.org/2000/svg" xmlns:xlink="http://www.w3.org/1999/xlink" x="0px" y="0px"
	 viewBox="0 0 60 59" style="enable-background:new 0 0 60 59;" xml:space="preserve">
<style type="text/css">
	.st0{fill:#E4CE3F;}
</style>
<path class="st0" d="M40,0H20C9,0,0,9,0,20v19c0,11,9,20,20,20h20c11,0,20-9,20-20V20C60,9,51,0,40,0z M59,39c0,10.5-8.5,19-19,19
	H20C9.5,58,1,49.5,1,39V20C1,9.5,9.5,1,20,1h20c10.5,0,19,8.5,19,19V39z M54,31c0,4.4-3.6,8-8,8H15c-4.4,0-8-3.6-8-8s3.6-8,8-8h31
	C50.4,23,54,26.6,54,31z"/>
</svg>
