<svg xmlns="http://www.w3.org/2000/svg" id="sports_soccer-24px" width="24" height="24" viewBox="0 0 24 24">
    <g id="Bounding_Box">
        <path id="Rectangle_314" fill="none" d="M0 0H24V24H0z" data-name="Rectangle 314"/>
    </g>
    <g id="Master">
        <g id="Group_491" fill="#af9b18" data-name="Group 491">
            <circle id="Ellipse_3" cx="9" cy="9" r="9" data-name="Ellipse 3" opacity="0.3" transform="translate(3 3)"/>
            <path id="Path_6438" d="M12 2a10 10 0 1 0 10 10A10 10 0 0 0 12 2zm1 3.3l1.35-.95a8.01 8.01 0 0 1 4.38 3.34l-.39 1.34-1.35.46L13 6.7zm-3.35-.95L11 5.3v1.4L7.01 9.49l-1.35-.46-.39-1.34a8.1 8.1 0 0 1 4.38-3.34zM7.08 17.11l-1.14.1A7.938 7.938 0 0 1 4 12c0-.12.01-.23.02-.35l1-.73 1.38.48 1.46 4.34zm7.42 2.48a7.827 7.827 0 0 1-5 0l-.69-1.49.64-1.1h5.11l.64 1.11zM14.27 15H9.73l-1.35-4.02L12 8.44l3.63 2.54zm3.79 2.21l-1.14-.1-.79-1.37 1.46-4.34 1.39-.47 1 .73c.01.11.02.22.02.34a7.938 7.938 0 0 1-1.94 5.21z" data-name="Path 6438"/>
        </g>
    </g>
</svg>
