<svg id="twotone-closed_caption-24px" xmlns="http://www.w3.org/2000/svg" width="22" height="22" viewBox="0 0 22 22">
  <rect id="Rectangle_315" data-name="Rectangle 315" width="11" height="16" transform="translate(7 3)" fill="#af9b18" opacity="0.3"/>
  <path id="Path_4716" data-name="Path 4716" d="M0,0H22V22H0Z" fill="none"/>
  <path id="Path_4717" data-name="Path 4717" d="M16.75,1.009,7.583,1A1.839,1.839,0,0,0,5.75,2.833v2.75H7.583V4.667H16.75V17.5H7.583v-.917H5.75v2.75a1.839,1.839,0,0,0,1.833,1.833H16.75a1.839,1.839,0,0,0,1.833-1.833V2.833A1.831,1.831,0,0,0,16.75,1.009ZM9.417,13.833H11.25V7.417H4.833V9.25H8.124L3,14.374l1.292,1.292,5.124-5.124Z" transform="translate(-0.25 -0.083)" fill="#af9b18"/>
</svg>
