<svg id="twotone-closed_2caption-24px" xmlns="http://www.w3.org/2000/svg" width="24" height="24" viewBox="0 0 24 24">
  <path id="Path_5269" data-name="Path 5269" d="M0,0H24V24H0Z" fill="none"/>
  <path id="Path_5270" data-name="Path 5270" d="M20,4H8V16H20Zm-1,7H15v4H13V11H9V9h4V5h2V9h4Z" fill="#af9b18" opacity="0.3"/>
  <path id="Path_5271" data-name="Path 5271" d="M4,22H18V20H4V6H2V20A2.006,2.006,0,0,0,4,22Zm4-4H20a2.006,2.006,0,0,0,2-2V4a2.006,2.006,0,0,0-2-2H8A2.006,2.006,0,0,0,6,4V16A2.006,2.006,0,0,0,8,18ZM8,4H20V16H8Zm7,1H13V9H9v2h4v4h2V11h4V9H15Z" fill="#af9b18"/>
</svg>
