<svg id="twotone-closed_caption-24px" xmlns="http://www.w3.org/2000/svg" width="21.561" height="21.561" viewBox="0 0 21.561 21.561">
  <path id="Path_5470" data-name="Path 5470" d="M0,0H21.561V21.561H0Z" fill="none"/>
  <path id="Path_5471" data-name="Path 5471" d="M7,3H19.578V15.578H7Z" transform="translate(-0.711 -0.305)" fill="#af9b18" opacity="0.3"/>
  <path id="Path_5472" data-name="Path 5472" d="M2.8,20.765H17.171v-1.8H2.8V4.594H1V18.968A1.8,1.8,0,0,0,2.8,20.765ZM18.968,1H6.39a1.8,1.8,0,0,0-1.8,1.8V15.374a1.8,1.8,0,0,0,1.8,1.8H18.968a1.8,1.8,0,0,0,1.8-1.8V2.8A1.8,1.8,0,0,0,18.968,1Zm0,14.374H6.39V2.8H18.968Z" transform="translate(-0.102 -0.102)" fill="#af9b18"/>
</svg>
