<svg xmlns="http://www.w3.org/2000/svg" width="35.353" height="34.999" viewBox="0 0 35.353 34.999">
    <g id="Layer_2" data-name="Layer 2" transform="translate(0 .001)">
        <g id="Layer_2-2" data-name="Layer 2" transform="translate(0 -.001)">
            <path id="Path_6557" fill="#e4ce3f" d="M35.1 1.256A2.342 2.342 0 0 0 33 0h-6.5a3.784 3.784 0 0 0-2.678 1.109l-2.429 2.43a1.325 1.325 0 0 1-.937.388H3.564A3.563 3.563 0 0 0 0 7.492v23.942A3.563 3.563 0 0 0 3.564 35h23.942a3.563 3.563 0 0 0 3.564-3.564V7.8a.652.652 0 0 1 .192-.462l3.419-3.424a2.287 2.287 0 0 0 .419-2.658zm-1.687 1.4l-2.907 2.912L30 6.07l-4.286 4.286-3.4 3.4a3.026 3.026 0 0 0-.889 2.143v2.488a3.881 3.881 0 0 1-.229 1.309 3.817 3.817 0 0 1-.23.52 3.876 3.876 0 0 1-.424.635c-.081.1-.167.194-.258.286l-9.344 9.349c-.032.032-.065.062-.1.089l-.032.025c-.024.019-.049.038-.074.055l-.035.024c-.027.018-.056.035-.085.05l-.023.013c-.037.019-.074.036-.111.051l-.03.012-.085.03-.038.011-.082.02-.035.007c-.038.007-.076.012-.119.017h-.012a.937.937 0 0 1-.1 0h-.16a.7.7 0 0 1-.119-.017h-.007q-.054-.011-.1-.025l-.035-.01-.086-.03-.032-.008a1.111 1.111 0 0 1-.108-.049l-.018-.01c-.03-.015-.06-.032-.087-.049l-.03-.019c-.027-.018-.054-.036-.079-.055L9.1 30.6a1.109 1.109 0 0 1-.09-.077l-.019-.018-.067-.069-.024-.025c-.021-.026-.043-.052-.063-.08l-.013-.017c-.023-.033-.045-.068-.065-.1l-.015-.027c-.014-.027-.03-.056-.043-.086 0-.011-.011-.021-.015-.033-.014-.033-.027-.069-.039-.1v-.013c-.012-.04-.024-.082-.032-.125a.064.064 0 0 0-.007-.036.9.9 0 0 1-.015-.1v-.039a1.323 1.323 0 0 1-.007-.138V15.484a2.012 2.012 0 0 0-.088-.6 2.034 2.034 0 0 0-.517-.843l-2.7-2.7a.583.583 0 0 1 .412-1h5.88a1.219 1.219 0 0 1 .6.15 1.174 1.174 0 0 1 .2.133 1.227 1.227 0 0 1 .238.263 1.124 1.124 0 0 1 .119.211.926.926 0 0 1 .042.119 1.22 1.22 0 0 1 .056.369v12.681a.907.907 0 0 0 .01.129v.032a1.1 1.1 0 0 0 .026.112.017.017 0 0 1 0 .007.833.833 0 0 0 .045.111c0 .008.008.017.013.026a.714.714 0 0 0 .052.088l.007.012a.851.851 0 0 0 .073.087l.019.02c.024.024.048.045.073.067l.013.011c.03.023.061.044.092.063l.024.013c.029.015.056.03.086.043l.019.008a.981.981 0 0 0 .1.035h.02a.639.639 0 0 0 .093.018h.023a.878.878 0 0 0 .1 0h.037a.926.926 0 0 0 .1-.01h.019a.952.952 0 0 0 .111-.029L14 25.1a.792.792 0 0 0 .1-.042l.012-.006a.861.861 0 0 0 .1-.063l.023-.018a.809.809 0 0 0 .1-.085l2.126-2.126a2.313 2.313 0 0 0 .676-1.625v-9.4a3.423 3.423 0 0 1 1-2.42l3.25-3.245 2.143-2.143 1.556-1.556a2 2 0 0 1 1.414-.586h6.555a.508.508 0 0 1 .36.868z" data-name="Path 6557" transform="translate(0 .001)"/>
        </g>
    </g>
</svg>
